<?xml version="1.0" standalone="no"?>
<!DOCTYPE svg PUBLIC "-//W3C//DTD SVG 20010904//EN"
 "http://www.w3.org/TR/2001/REC-SVG-20010904/DTD/svg10.dtd">
<svg version="1.0" xmlns="http://www.w3.org/2000/svg"
 width="260.000000pt" height="260.000000pt" viewBox="0 0 260.000000 260.000000"
 preserveAspectRatio="xMidYMid meet">
<metadata>
Created by potrace 1.11, written by Peter Selinger 2001-2013
</metadata>
<g transform="translate(0.000000,260.000000) scale(0.100000,-0.100000)"
fill="#000000" stroke="none">
<path d="M809 1767 c-15 -30 -15 -35 2 -75 11 -24 21 -53 23 -65 3 -12 7 -32
10 -44 3 -13 8 -63 11 -112 3 -49 8 -100 11 -113 2 -12 6 -44 9 -69 8 -88 67
-188 136 -231 97 -61 290 -62 570 -4 145 31 328 103 330 130 0 6 3 22 6 36 2
14 6 32 8 40 3 19 -35 89 -56 100 -13 7 -18 2 -27 -28 -10 -33 -9 -39 13 -62
14 -14 25 -31 25 -37 0 -11 -131 -63 -208 -83 -135 -35 -300 -55 -452 -55
-101 0 -120 3 -159 23 -79 43 -113 90 -132 187 -6 28 -13 61 -16 75 -2 14 -6
45 -8 70 -5 57 -14 148 -18 180 -6 43 -36 134 -49 152 -12 16 -14 14 -29 -15z"/>
<path d="M669 1765 c-2 -37 -3 -43 -11 -51 -5 -4 -8 -3 -8 3 0 14 -49 46 -76
49 -16 1 -21 -3 -20 -19 1 -16 10 -23 36 -28 19 -4 45 -19 57 -34 13 -15 23
-21 24 -13 4 42 7 74 8 80 0 4 12 5 26 2 27 -5 32 5 13 24 -21 21 -48 14 -49
-13z"/>
<path d="M1895 1780 c-16 -5 -97 -26 -180 -49 -211 -57 -496 -152 -585 -195
-49 -24 -79 -45 -87 -61 -13 -28 -7 -31 22 -12 27 18 172 79 264 111 72 25
289 88 490 143 98 26 131 42 131 64 0 10 -13 10 -55 -1z"/>
<path d="M1027 1760 c-3 -13 6 -25 31 -42 50 -33 74 -69 74 -113 0 -26 3 -34
9 -24 25 41 -1 134 -47 166 -45 31 -61 34 -67 13z"/>
<path d="M2105 1772 c-16 -2 -38 -11 -49 -20 -23 -21 -50 -72 -37 -72 5 0 11
5 13 10 4 13 83 19 123 10 29 -7 27 -8 -48 -43 -43 -21 -82 -37 -88 -37 -5 0
-9 -4 -9 -9 0 -10 72 -4 118 11 37 11 76 48 105 97 17 29 17 30 0 39 -23 12
-89 19 -128 14z"/>
<path d="M1310 1755 c0 -8 0 -17 0 -20 0 -3 -4 -16 -10 -30 -8 -21 -6 -27 12
-36 18 -10 24 -8 35 7 13 17 12 19 -11 22 -23 3 -25 7 -20 38 3 19 3 34 0 34
-3 0 -6 -7 -6 -15z"/>
<path d="M2306 1678 c-9 -20 -11 -42 -6 -62 5 -17 11 -58 14 -91 4 -33 8 -78
11 -100 2 -22 7 -62 9 -90 4 -44 10 -84 34 -230 3 -22 6 -91 6 -153 -1 -123 9
-133 40 -39 18 55 20 122 5 222 -5 39 -12 84 -14 100 -1 17 -8 60 -14 96 -6
37 -14 100 -17 140 -7 73 -6 74 13 57 45 -41 42 -10 -12 107 -18 41 -39 75
-45 75 -6 0 -17 -14 -24 -32z"/>
<path d="M643 1590 c-3 -11 -9 -20 -14 -20 -25 0 -4 -31 36 -53 l45 -25 20 28
c28 39 26 45 -23 69 -53 26 -58 26 -64 1z"/>
<path d="M1698 1565 c-13 -30 -13 -35 -1 -35 8 0 11 5 8 10 -3 6 3 10 14 10
11 0 23 -5 26 -10 8 -13 25 -3 25 15 0 17 -27 45 -44 45 -6 0 -19 -16 -28 -35z"/>
<path d="M2191 1583 c1 -5 0 -10 -1 -13 -7 -20 -7 -40 2 -40 6 0 8 7 4 15 -3
8 -1 15 4 15 6 0 10 7 10 15 0 8 -4 15 -10 15 -5 0 -9 -3 -9 -7z"/>
<path d="M1554 1523 c-4 -15 -3 -28 2 -30 42 -15 41 -41 -4 -90 -30 -33 -133
-107 -199 -143 -74 -41 -39 -33 58 13 103 48 158 97 178 160 18 53 30 55 68
13 19 -20 37 -35 41 -32 11 7 7 99 -5 103 -6 2 -9 -7 -6 -24 l5 -28 -24 26
c-19 21 -86 59 -104 59 -2 0 -7 -12 -10 -27z"/>
<path d="M1335 1508 c-12 -55 -12 -115 0 -131 12 -17 54 -24 56 -9 0 4 2 15 4
25 4 19 -11 24 -18 5 -3 -10 -10 -8 -25 6 -12 10 -19 23 -15 29 3 6 7 25 8 43
2 18 6 37 9 43 4 6 3 11 -3 11 -6 0 -13 -10 -16 -22z"/>
<path d="M1940 1503 c-8 -16 -16 -31 -18 -36 -4 -8 74 -46 95 -47 11 0 43 48
43 64 0 3 -15 12 -33 20 -68 28 -73 28 -87 -1z"/>
<path d="M2177 1514 c-11 -11 -8 -21 9 -39 12 -12 19 -13 30 -4 18 15 18 33
-1 25 -8 -3 -18 2 -23 10 -4 8 -11 11 -15 8z"/>
<path d="M673 1428 c0 -7 -3 -26 -6 -41 -6 -30 16 -71 75 -140 18 -22 36 -45
40 -52 21 -36 -292 -199 -546 -284 -97 -33 -173 -62 -167 -65 5 -3 15 -4 23
-1 22 8 87 18 258 41 62 8 123 33 233 94 175 97 225 142 231 205 2 20 6 38 9
41 8 8 -20 58 -47 83 -23 22 -27 49 -5 36 23 -15 5 10 -37 51 -49 46 -60 52
-61 32z"/>
<path d="M1100 1422 c0 -4 13 -19 29 -34 23 -22 29 -35 27 -66 -1 -21 -5 -42
-8 -47 -3 -6 -9 -27 -12 -47 -5 -34 -3 -38 19 -44 28 -7 41 -1 55 27 9 15 6
24 -13 42 -24 23 -42 57 -29 57 6 0 8 38 3 68 -4 29 -71 71 -71 44z m81 -198
c12 -14 11 -16 -5 -13 -11 2 -21 10 -24 17 -5 17 13 15 29 -4z"/>
<path d="M2226 1391 c-16 -25 -16 -64 -1 -87 15 -23 14 -24 -12 -30 -16 -3
-34 -7 -41 -10 -7 -2 -20 4 -30 14 -21 20 -60 50 -50 38 3 -4 2 -23 -3 -41 -9
-31 -6 -40 26 -86 56 -82 53 -89 -77 -152 -211 -103 -446 -153 -708 -150 -170
2 -353 59 -490 154 -40 27 -75 48 -77 45 -11 -11 163 -176 215 -204 61 -32
205 -72 258 -72 18 0 35 -4 39 -10 3 -5 11 -7 18 -5 7 2 59 6 117 9 218 13
424 65 610 155 102 49 168 106 156 136 -3 8 -1 17 4 20 5 3 8 20 6 36 -3 27 1
33 30 45 29 12 66 54 48 54 -3 0 -2 6 3 13 8 10 10 44 4 82 -3 22 -38 58 -45
46z"/>
<path d="M1667 1351 c-12 -25 -14 -47 -8 -83 2 -12 51 -9 51 2 0 22 -2 25 -16
22 -18 -4 -29 22 -19 46 20 45 13 56 -8 13z"/>
<path d="M716 1015 c-20 -20 -21 -36 -2 -29 8 3 17 1 21 -5 10 -17 25 -13 25
8 0 30 -25 45 -44 26z"/>
<path d="M1491 1004 c-30 -34 -27 -43 24 -65 50 -22 59 -20 80 21 11 21 12 29
2 33 -6 3 -28 12 -48 21 -35 15 -37 14 -58 -10z"/>
<path d="M730 950 c-9 -6 -10 -10 -3 -10 6 0 15 5 18 10 8 12 4 12 -15 0z"/>
<path d="M2105 940 c-3 -11 -11 -20 -16 -20 -26 0 -4 -33 33 -50 32 -14 45
-16 60 -7 10 7 18 17 18 24 0 7 5 13 11 13 21 0 -5 22 -48 41 -54 23 -50 23
-58 -1z"/>
<path d="M710 919 c0 -5 5 -7 10 -4 6 3 10 8 10 11 0 2 -4 4 -10 4 -5 0 -10
-5 -10 -11z"/>
</g>
</svg>
